<svg xmlns="http://www.w3.org/2000/svg" width="180" height="37" viewBox="0 0 148 30"><path fill="#000" d="M0 .2h13.5v2.1H2.8v7.9h9.9v2.1H2.8v15.3H0V.2zm18.3 0h2.7v27.4h-2.7V.2zm13.9 0H35l7.8 12.7L50.6.2h2.8v27.4h-2.7V4.5l-7.9 12.7h-.2L34.7 4.5v23.1h-2.5V.2zm35.3 0h2.6v25.2h11.8v2.2H67.5V.2zm18.5 0h2.7v27.4h-2.7V.2zm12.7 13.7c0-8.6 5.9-14.6 14.3-14.6 8.4 0 14.2 5.9 14.2 14.6s-5.9 14.6-14.2 14.6C112.1 28.6 106.2 22.5 106.2 13.9zm2.8 0c0 7.2 4.6 12.4 11.5 12.4 7 0 11.4-5.2 11.4-12.4 0-7.2-4.5-12.4-11.4-12.4-6.9 0-11.5 5.2-11.5 12.4z"/></svg>